/* XPM */
static char *_524755434487[] = {
/* columns rows colors chars-per-pixel */
"16 16 171 2 ",
"   c black",
".  c #030000",
"X  c #000604",
"o  c #00050A",
"O  c #000E0D",
"+  c #150000",
"@  c #180000",
"#  c #1D0000",
"$  c #170900",
"%  c #1B0608",
"&  c #120D08",
"*  c #101007",
"=  c #12121B",
"-  c #220000",
";  c #2C0005",
":  c #300000",
">  c #350303",
",  c #380002",
"<  c #3D0000",
"1  c #3E0000",
"2  c #380206",
"3  c #380806",
"4  c #3F0D0B",
"5  c #3C0717",
"6  c #231A13",
"7  c #302710",
"8  c #28002E",
"9  c #26073A",
"0  c #1E2324",
"q  c #242A2A",
"w  c #293435",
"e  c #323331",
"r  c #460003",
"t  c #4E000E",
"y  c #440A0A",
"u  c #5C0500",
"i  c #630004",
"p  c #670007",
"a  c #6A0800",
"s  c #6C0E00",
"d  c #700000",
"f  c #63180C",
"g  c #792400",
"h  c #693007",
"j  c #77002C",
"k  c #51312E",
"l  c #4E3434",
"z  c #755E04",
"x  c #081A63",
"c  c #090C78",
"v  c #00216C",
"b  c #0E357D",
"n  c #520141",
"m  c #4C0E58",
"M  c #70006C",
"N  c #6B0A72",
"B  c #63087A",
"V  c #655A5A",
"C  c #7B7877",
"Z  c #840100",
"A  c #880D0C",
"S  c #970000",
"D  c #941B0F",
"F  c #A20000",
"G  c #A80E00",
"H  c #AB0E08",
"J  c #B00B01",
"K  c #922800",
"L  c #920524",
"P  c #970035",
"I  c #CC0E00",
"U  c #DA0A09",
"Y  c #C00C12",
"T  c #E9190D",
"R  c #A37B00",
"E  c #B34732",
"W  c #AB5F3C",
"Q  c #B95434",
"!  c #F75300",
"~  c #C75B29",
"^  c #9B0955",
"/  c #8A1350",
"(  c #A80044",
")  c #AD0457",
"_  c #872245",
"`  c #9F0A74",
"'  c #A80A63",
"]  c #D20D4A",
"[  c #C30B5A",
"{  c #F02F5C",
"}  c #C8076A",
"|  c #C4047D",
" . c #C20E7F",
".. c #F5B100",
"X. c #B69955",
"o. c #C08240",
"O. c #0F0D84",
"+. c #0C2B84",
"@. c #002797",
"#. c #2B2885",
"$. c #0019A4",
"%. c #630C85",
"&. c #780195",
"*. c #780B96",
"=. c #750BA5",
"-. c #5821AD",
";. c #004385",
":. c #2D418C",
">. c #2B48A0",
",. c #0364B7",
"<. c #5D6596",
"1. c #3645FA",
"2. c #880F8C",
"3. c #9E0D85",
"4. c #880FA7",
"5. c #9400A3",
"6. c #8B0BB2",
"7. c #AA06B8",
"8. c #BF0AB6",
"9. c #F7089E",
"0. c #CD6D96",
"q. c #EB61A2",
"w. c #9F0BCA",
"e. c #BD00C1",
"r. c #B30CFC",
"t. c #D60AEC",
"y. c #A979FF",
"u. c #7A8282",
"i. c #5988BD",
"p. c #0D88C7",
"a. c #0780CE",
"s. c #0081D3",
"d. c #0C97DB",
"f. c #328CC6",
"g. c #0084EF",
"h. c #0CACFD",
"j. c #35A6FF",
"k. c #4C8FEE",
"l. c #938282",
"z. c #9C8886",
"x. c #9C8C85",
"c. c #8B9F90",
"v. c #8D9FB2",
"b. c #B6AAA3",
"n. c #ADB1AC",
"m. c #C0AFB1",
"M. c #C9B2B6",
"N. c #D2B0B3",
"B. c #D0B3B9",
"V. c #D7B1BE",
"C. c #E2B4B7",
"Z. c #9BBDCF",
"A. c #AFBACE",
"S. c #BBBCDA",
"D. c #E6B0C8",
"F. c #CDCEC8",
"G. c #CDD6D2",
"H. c #D8DCDC",
"J. c #E5D4DC",
"K. c #E6EBD5",
"L. c #EAEFEE",
"P. c #E7F2EA",
"I. c #EFF4F5",
"U. c #F4FCFA",
"Y. c #F2FCFF",
"T. c #F6FFFF",
"R. c #FAFBF9",
"E. c #FBFFFE",
"W. c #FDFFFF",
"Q. c white",
"!. c None",
/* pixels */
"!.!.!.!.!.!.d.b O.+.!.!.!.!.!.!.",
"!.!.!.!.v s.h.g.$.@.x & !.!.!.!.",
"!.!.!.1.>.i.p.f.<.:.;.a.j.!.!.!.",
"!.!.-.c S.Q.= x.Q.Q.Z.,.k.y.!.!.",
"!.4.8   A.Q.6 e u.G.Q.v.#.e.7.!.",
"!.m 9   m.Q.w   - + U.K.M 5.2.!.",
"B %.5 P D.Q.q   @ > R.P.n &.6.N ",
"*.3.} ( V.E.V l.C H.Q.z.i ` r.=.",
" .9.| j M.Q.l L.Q.Q.c.u ) 8.t.w.",
"^ [ L , n.Q.% 0 Q.F.1 r A Y ] ' ",
"!.G a @ N.Q.k : b.Q.0.; $ s I !.",
"!.J 3 1 C.Q.Q Z h I.Q._   O 4 !.",
"!.!.y F B.T.E d g X.Y.J.* X !.!.",
"!.!.!.T ~ W D S f R o.q./ !.!.!.",
"!.!.!.!.! K 2 U t z ..{ !.!.!.!.",
"!.!.!.!.!.!.o H p 7 !.!.!.!.!.!."
};
