/* XPM */
static char *_524755423705[] = {
/* columns rows colors chars-per-pixel */
"32 32 236 2 ",
"   c #010101",
".  c #0D0201",
"X  c #010A02",
"o  c #020B0B",
"O  c #0B0B0C",
"+  c #050507",
"@  c #110002",
"#  c #190406",
"$  c #000216",
"%  c #160D14",
"&  c #0C1211",
"*  c #151313",
"=  c #05100C",
"-  c #280607",
";  c #330201",
":  c #370606",
">  c #31171A",
",  c #0C0631",
"<  c #2D0E35",
"1  c #393939",
"2  c #283737",
"3  c #0C2534",
"4  c #440201",
"5  c #4D0200",
"6  c #440C0A",
"7  c #590502",
"8  c #5D1106",
"9  c #531214",
"0  c #680704",
"q  c #7B0C01",
"w  c #770804",
"e  c #651607",
"r  c #730F13",
"t  c #4E2B09",
"y  c #7D3500",
"u  c #4F0A38",
"i  c #67002A",
"p  c #780028",
"a  c #620533",
"s  c #442726",
"d  c #4D3537",
"f  c #5A460E",
"g  c #7A4700",
"h  c #4C443E",
"j  c #0E0653",
"k  c #000A49",
"l  c #11205C",
"z  c #071879",
"x  c #00096B",
"c  c #0C2674",
"v  c #132D6E",
"b  c #430357",
"n  c #500753",
"m  c #750B4F",
"M  c #4B0C67",
"N  c #55096B",
"B  c #6A0D79",
"V  c #690C75",
"C  c #164977",
"Z  c #204C7A",
"A  c #144652",
"S  c #4D4D4D",
"D  c #454D4D",
"F  c #5A5556",
"G  c #52534B",
"H  c #644C4E",
"J  c #725352",
"K  c #7A6442",
"L  c #596B7C",
"P  c #766B6B",
"I  c #850202",
"U  c #8C0002",
"Y  c #850B05",
"T  c #890C06",
"R  c #930B02",
"E  c #990C02",
"W  c #960608",
"Q  c #991102",
"!  c #8B1018",
"~  c #A80B08",
"^  c #B40D0C",
"/  c #B70D07",
"(  c #AE1703",
")  c #B2110F",
"_  c #8C2D0A",
"`  c #B02900",
"'  c #A53E08",
"]  c #87033A",
"[  c #90082E",
"{  c #A73E23",
"}  c #C60905",
"|  c #CF0E0A",
" . c #C43700",
".. c #CA3116",
"X. c #D2092C",
"o. c #8D4F0E",
"O. c #BA470A",
"+. c #86610B",
"@. c #AB6B00",
"#. c #AF7307",
"$. c #D55106",
"%. c #C65300",
"&. c #FF5C0A",
"*. c #D9741F",
"=. c #E26003",
"-. c #CB5626",
";. c #950043",
":. c #8D0953",
">. c #A70548",
",. c #A60A5B",
"<. c #BF0C55",
"1. c #8E2F55",
"2. c #A82A5D",
"3. c #B70965",
"4. c #BA0B78",
"5. c #AA0D67",
"6. c #940F78",
"7. c #C30764",
"8. c #CE0A78",
"9. c #D50972",
"0. c #E9067A",
"q. c #D72966",
"w. c #985758",
"e. c #905651",
"r. c #AD5E5A",
"t. c #97695C",
"y. c #967758",
"u. c #8F675F",
"i. c #AC6C54",
"p. c #9F5774",
"a. c #875868",
"s. c #A35779",
"d. c #9D6171",
"f. c #AC767C",
"g. c #C56E64",
"h. c #E16A62",
"j. c #BD8000",
"k. c #D98D05",
"l. c #DB9B03",
"z. c #C69803",
"x. c #F29C04",
"c. c #FA972B",
"v. c #000C91",
"b. c #05278D",
"n. c #0A3689",
"m. c #0D3393",
"M. c #0B3EAC",
"N. c #102FB2",
"B. c #7D0C88",
"V. c #770B92",
"C. c #7808A2",
"Z. c #154291",
"A. c #2B529A",
"S. c #186D9B",
"D. c #2A749F",
"F. c #0040AB",
"G. c #084AB3",
"H. c #0063A8",
"J. c #0378BF",
"K. c #0A6FB8",
"L. c #575F9B",
"P. c #706C97",
"I. c #5862A0",
"U. c #6967A0",
"Y. c #123DD5",
"T. c #7B2DD8",
"R. c #0E42C3",
"E. c #2844D9",
"W. c #0679D1",
"Q. c #267BD4",
"!. c #1853FE",
"~. c #3140F6",
"^. c #7975DE",
"/. c #870896",
"(. c #960599",
"). c #900888",
"_. c #B50992",
"`. c #960AA7",
"'. c #890DB8",
"]. c #980EAD",
"[. c #A90BB7",
"{. c #B107BC",
"}. c #C20B8B",
"|. c #D20689",
" X c #ED0E84",
".X c #C508B0",
"XX c #ED0BA6",
"oX c #BE5788",
"OX c #A8778B",
"+X c #900BD2",
"@X c #AC0BC8",
"#X c #AD12C6",
"$X c #A30AD2",
"%X c #B60FDA",
"&X c #9A29D9",
"*X c #981DE3",
"=X c #B00AE9",
"-X c #CB0ACD",
";X c #EE0FF9",
":X c #E62BFF",
">X c #C333F4",
",X c #9878E7",
"<X c #3485BC",
"1X c #1187C7",
"2X c #0789D9",
"3X c #1287D5",
"4X c #0C91D1",
"5X c #3781D8",
"6X c #0693E9",
"7X c #0296F6",
"8X c #0D8AE1",
"9X c #09A4F5",
"0X c #0BABEF",
"qX c #4E98F3",
"wX c #918A8C",
"eX c #AB9393",
"rX c #9399B7",
"tX c #8C97B2",
"yX c #AAAAAB",
"uX c #AFC3B0",
"iX c #91A1C7",
"pX c #A3A8FF",
"aX c #8C8EF6",
"sX c #93C4DE",
"dX c #C7C9C6",
"fX c #C1D6D6",
"gX c #D2D3D3",
"hX c #CED0CA",
"jX c #E3D8D8",
"kX c #DDE0E0",
"lX c #CAE9E3",
"zX c #FFFFFF",
"xX c #F4F6F6",
"cX c #E8ECEF",
"vX c #D4D9E6",
"bX c None",
/* pixels */
"bXbXbXbXbXbXbXbXbXbXbXbXbXbXv , j z bXbXbXbXbXbXbXbXbXbXbXbXbXbX",
"bXbXbXbXbXbXbXbXbXbX0X7X8X0XQ.j N.Y.b.c m.v bXbXbXbXbXbXbXbXbXbX",
"bXbXbXbXbXbXbXbX# A 0X6X8X3X0XG.N.G.n.n.G.c . @ bXbXbXbXbXbXbXbX",
"bXbXbXbXbXbXbX!.G.l 4X4X4X3X3X9XY.m.n.Z.m.. . 3 S.bXbXbXbXbXbXbX",
"bXbXbXbXbXbX~.R.M.v.M.2XJ.4X2XW.c x z b.n.C 1X6X7X7XbXbXbXbXbXbX",
"bXbXbXbX>X:XT.m.A.rXiXiX<XJ.D.rXwXtXU.A.H.2X6X5XQ.Q.qXbXbXbXbXbX",
"bXbXbXbX*XE.G.x U.zXzXzXL $ s zXzXzXzXzXyXZ.H.5X,X,XaXpXbXbXbXbX",
"bXbXbX#X, x m.v.L.zXzXzXh   1 zXzXzXzXzXzXjXZ H.1XqX^.&X=XbXbXbX",
"bXbX$X;X<   X k I.zXzXzXS   1 gXdXkXzXzXzXzXhXA.Q.A./.).[.V bXbX",
"bXbXM $XV.X X   F zXzXzXS       . + S kXzXzXzXP.N 6.{.[.{.#XbXbX",
"bXX X X V % X   D zXzXzXS   +   7 4   2 zXzXzXeXu {.[.[.`.].n bX",
"bX& < B.N X X   a.zXzXzXS   X : 7 7 4   gXzXzXyXb /.B N N /./.bX",
"bX/.`.`.o X [ ;.oXzXzXzXS   # 7 4 4 4 4 jXzXzXdXb N +X].B V ).bX",
"bX]./.3 # ,.9.>.p.zXzXzXD   4 4 ; ; . J zXzXzXyXi m V.=X#X]./.bX",
"n C.B m 7.9.,.] s.zXzXzXF * 6 : : - P cXzXzXzXJ 7 R R /.+X+X=XbX",
"M )._.XX}.,.,.[ p.zXzXzXd wXcXkXkXxXzXzXzXzXfX4 U w ! _.[.'.*XN ",
").XX|.4.4.5.,.;.s.zXzXzXd > zXzXzXzXzXzXzXlXs U >.(.$X#X.X.X%XM ",
":. X5.3.3.3.5.p a.zXzXzXH + u.zXzXzXzXcXyX> 4 Y ,._._.{.%X-X;XbX",
"bX X8.8.,.] 0 ; J zXzXzXH ;   fXzXzXzXF ; ] 0 0 0 T / X.<._.-XbX",
"bX8.>.! w 0 w - J zXzXzXJ @   s zXzXzXhXi ,.> 4 Y T q Q } } / bX",
"bX9 R q q Q 6 - w.zXzXzXH   : 5 wXzXzXzXeX[ m   - 0 ~ Q Y / ~ bX",
"bXq ( q W w = 7 w.zXzXzXH 5 _ _ t vXzXzXxX1.>.% X o - r ( | 0 bX",
"bXbX~ W E o - U e.zXzXzXe.` ' 7 y K zXzXzXhX;.a X = o o : W bXbX",
"bXbXw } - o ! I w.zXzXzXi.` ! 0 o.g yXzXzXzXeX[ O o O = = o bXbX",
"bXbXbXe o : ^ w r.zXzXzXi.( w w r @.o.cXzXzXzX2.- X O O * bXbXbX",
"bXbXbXbXo r ^ I g.zXzXzXi.U I E 9 +.#.y.zXzXzXxX9   O & bXbXbXbX",
"bXbXbXbXbX| W ~ -.u.t.t.{ U R Q 0 s z.@.y.f.d.OX1.O = bXbXbXbXbX",
"bXbXbXbXbXbX^ ..%.` `  .e T Q Q W - #.k.@.*.q.] 0.u bXbXbXbXbXbX",
"bXbXbXbXbXbXbX..$.O.$.O.$ Y ^ ! ^ @ f x.j.z.h.|. XbXbXbXbXbXbXbX",
"bXbXbXbXbXbXbXbXO.$.&.t + e / W ^ - & k.l.x.c.5.bXbXbXbXbXbXbXbX",
"bXbXbXbXbXbXbXbXbXbX_ % o - } ) } 8 $ o.x.#.bXbXbXbXbXbXbXbXbXbX",
"bXbXbXbXbXbXbXbXbXbXbXbXbXbX8 Y I 9 bXbXbXbXbXbXbXbXbXbXbXbXbXbX"
};
