/* XPM */
static char *_524755399470[] = {
/* columns rows colors chars-per-pixel */
"64 64 254 2 ",
"   c #020302",
".  c #0B0201",
"X  c #010B03",
"o  c #020B0A",
"O  c #0B0B0B",
"+  c #070808",
"@  c #1A0101",
"#  c #150807",
"$  c #040613",
"%  c #111111",
"&  c #110F11",
"*  c #240000",
"=  c #2B0202",
"-  c #290909",
";  c #3B0100",
":  c #360706",
">  c #2A1513",
",  c #320F11",
"<  c #120F2F",
"1  c #300935",
"2  c #2F2A2A",
"3  c #0D2834",
"4  c #440600",
"5  c #4B0401",
"6  c #480907",
"7  c #530302",
"8  c #5B0302",
"9  c #580907",
"0  c #520D0C",
"q  c #630303",
"w  c #6D0A02",
"e  c #680708",
"r  c #7C0302",
"t  c #7C0B02",
"y  c #750706",
"u  c #751302",
"i  c #6E0D0E",
"p  c #562F0D",
"a  c #702D09",
"s  c #550C2E",
"d  c #680128",
"f  c #77032D",
"g  c #720435",
"h  c #4D3132",
"j  c #763F3E",
"k  c #744A11",
"l  c #6D543C",
"z  c #0A0854",
"x  c #000868",
"c  c #06177B",
"v  c #0C0F6F",
"b  c #0C267C",
"n  c #0C2F72",
"m  c #2C3573",
"M  c #1C2159",
"N  c #54075B",
"B  c #480C53",
"V  c #720A48",
"C  c #580C6E",
"Z  c #680A6B",
"A  c #6A0B76",
"S  c #76097C",
"D  c #6B0C70",
"F  c #4F2B50",
"G  c #134B76",
"H  c #2A537B",
"J  c #666465",
"K  c #717572",
"L  c #5C5758",
"P  c #8C0404",
"I  c #840B02",
"U  c #8C0C02",
"Y  c #870809",
"T  c #930B01",
"R  c #9B0B02",
"E  c #940B0D",
"W  c #9B0B0C",
"Q  c #960407",
"!  c #8C1302",
"~  c #851204",
"^  c #961404",
"/  c #8A0917",
"(  c #990814",
")  c #801B14",
"_  c #A50C03",
"`  c #A90A07",
"'  c #B80A05",
"]  c #A81503",
"[  c #B90D13",
"{  c #AD1012",
"}  c #972D09",
"|  c #A8330A",
" . c #8F0732",
".. c #A6082D",
"X. c #922E2B",
"o. c #C70D09",
"O. c #DA0C09",
"+. c #D10E10",
"@. c #CA2317",
"#. c #8F4F08",
"$. c #B94805",
"%. c #B54F07",
"&. c #9A6E0B",
"*. c #AB7404",
"=. c #BA7A02",
"-. c #A66707",
";. c #C74907",
":. c #D55307",
">. c #CC4E09",
",. c #E7590A",
"<. c #C17E03",
"1. c #E16D12",
"2. c #9B0956",
"3. c #8F094B",
"4. c #A40B5A",
"5. c #A80759",
"6. c #B3075A",
"7. c #A90D51",
"8. c #980A74",
"9. c #A80763",
"0. c #B50A63",
"q. c #B90968",
"w. c #B8097A",
"e. c #B20F75",
"r. c #952750",
"t. c #C6086A",
"y. c #D50D7A",
"u. c #CA0F72",
"i. c #DC1E74",
"p. c #896B66",
"a. c #E06163",
"s. c #79807B",
"d. c #BD8501",
"f. c #C38201",
"g. c #C98605",
"h. c #D58A0E",
"j. c #E8950B",
"k. c #E49A1A",
"l. c #A18272",
"z. c #FD8570",
"x. c #08168E",
"c. c #092986",
"v. c #0B3B8D",
"b. c #0B3589",
"n. c #083998",
"m. c #133A98",
"M. c #0A2E8F",
"N. c #0C29A9",
"B. c #0A3AA8",
"V. c #1237A9",
"C. c #0C39B5",
"Z. c #1432B0",
"A. c #5D0F8E",
"S. c #760C82",
"D. c #7A0986",
"F. c #700D89",
"G. c #760CAF",
"H. c #5B38B0",
"J. c #094395",
"K. c #074C8B",
"L. c #28448D",
"P. c #094AAC",
"I. c #0678B9",
"U. c #1073B0",
"Y. c #2974AE",
"T. c #6B6F87",
"R. c #0D39C5",
"E. c #2C3AC3",
"W. c #6236E3",
"Q. c #1048C9",
"!. c #057ACA",
"~. c #067ED6",
"^. c #177BCF",
"/. c #2B7BD0",
"(. c #0D4DEC",
"). c #4D7BD6",
"_. c #6D6ED4",
"`. c #727AE4",
"'. c #8A0B97",
"]. c #8A0E92",
"[. c #BA0A85",
"{. c #AC0D95",
"}. c #980CA7",
"|. c #8A0BB6",
" X c #940ABA",
".X c #8A14BB",
"XX c #8A0CA5",
"oX c #A60BAB",
"OX c #B50AAC",
"+X c #A80BB7",
"@X c #B809B7",
"#X c #C6098C",
"$X c #D50A8E",
"%X c #EB0B8D",
"&X c #C709B7",
"*X c #EC0FA4",
"=X c #9B7084",
"-X c #FF7B85",
";X c #9807C6",
":X c #910BCC",
">X c #A50BC8",
",X c #B60BC4",
"<X c #AA0AD8",
"1X c #B311CC",
"2X c #8E2ECD",
"3X c #B80FEE",
"4X c #A72AF2",
"5X c #C90CCF",
"6X c #CE10F9",
"7X c #DB1BEC",
"8X c #8B7BE6",
"9X c #927CED",
"0X c #A656F6",
"qX c #0882BB",
"wX c #718EA2",
"eX c #0686C7",
"rX c #1586C9",
"tX c #0B89D6",
"yX c #1388D8",
"uX c #0D97D9",
"iX c #079AE7",
"pX c #159AE8",
"aX c #0C92EF",
"sX c #09A7FB",
"dX c #12A7F4",
"fX c #2A8DC6",
"gX c #6F93ED",
"hX c #6490DF",
"jX c #8E8D8E",
"kX c #858485",
"lX c #978C8C",
"zX c #979498",
"xX c #909695",
"cX c #A79FA5",
"vX c #97A6A9",
"bX c #A7A6A7",
"nX c #B9A8A9",
"mX c #B6B6B5",
"MX c #ACADB7",
"NX c #A19698",
"BX c #C2A8B1",
"VX c #C8B2B5",
"CX c #EBAA9C",
"ZX c #ABB0C5",
"AX c #8F99FF",
"SX c #D6D9D9",
"DX c #CCD0D1",
"FX c #EAEAE9",
"GX c #FFFFFF",
"HX c #F9FBF7",
"JX c #F1F2EF",
"KX c #DBD7D0",
"LX c #BDC9BA",
"PX c None",
/* pixels */
"PXPXPXPXPXPXPXPXPXPXPXPXPXPXPXPXPXPXPXPXPXPXPXPXPXPXPXPXPXPXPXPXPXPXPXPXPXPXPXPXPXPXPXPXPXPXPXPXPXPXPXPXPXPXPXPXPXPXPXPXPXPXPXPX",
"PXPXPXPXPXPXPXPXPXPXPXPXPXPXPXPXPXPXPXPXPXPXPXPXPXPXqXdX^.z v c z x.N.N.N.M PXPXPXPXPXPXPXPXPXPXPXPXPXPXPXPXPXPXPXPXPXPXPXPXPXPX",
"PXPXPXPXPXPXPXPXPXPXPXPXPXPXPXPXPXPXPXPXPXPXuXiXiXsXdXiXdXM.x v v Q.Z.Z.N.c.c.b b n PXPXPXPXPXPXPXPXPXPXPXPXPXPXPXPXPXPXPXPXPXPX",
"PXPXPXPXPXPXPXPXPXPXPXPXPXPXPXPXPXPXPXpXpXpXiXiXaXyXyXtXpXyXz z Z.Q.Z.Z.c.b c.b x.c.m.n PXPXPXPXPXPXPXPXPXPXPXPXPXPXPXPXPXPXPXPX",
"PXPXPXPXPXPXPXPXPXPXPXPXPXPXPXPXPX# % pXsXtXtXtXyXyXyXtXtXdXJ.v Q.Z.Z.m.b.b.b.c.c.b B.M . % PXPXPXPXPXPXPXPXPXPXPXPXPXPXPXPXPXPX",
"PXPXPXPXPXPXPXPXPXPXPXPXPXPXPXPX< @ . G sXeXuXtXtXyXyXyXyXtXpXC.B.C.C.J.b.b.v.b.v.n.m.O O O O % PXPXPXPXPXPXPXPXPXPXPXPXPXPXPXPX",
"PXPXPXPXPXPXPXPXPXPXPXPXPXPXQ.(.Q.b.< % uXtXrXeXtXyXyXyXrXrXdX~.N.C.V.v.m.v.v.v.b.P.M . O + # . # m PXPXPXPXPXPXPXPXPXPXPXPXPXPX",
"PXPXPXPXPXPXPXPXPXPXPXPXPX(.Q.Q.Q.Q.Q.v U.iXqX^.eXtX~.yXrXtXaXiXP.N.J.v.v.v.v.v.v.P.o . @ . 3 G U.pXdXPXPXPXPXPXPXPXPXPXPXPXPXPX",
"PXPXPXPXPXPXPXPXPXPXPXPX(.R.R.R.P.m.P.V.P.dXtXrXeXeXeXtXrX!.^.pXaXP.b.v.v.v.v.v.J.z # < G U.pXaX~.!.aXaXPXPXPXPXPXPXPXPXPXPXPXPX",
"PXPXPXPXPXPXPXPXPXPX2XW.Q.Q.R.C.n.N.M.x.x.tXaX~.eXqXqXqX!.!.!.U.P.M.c c.b.n.b.b n.B.U.aXaXuX^.^.~.~.^.yXsXPXPXPXPXPXPXPXPXPXPXPX",
"PXPXPXPXPXPXPXPXPX2X7X6X6X4XH.J.n.L.L.L.m Y.fXY.Y.I.U.qXuXfXY.m 2 2 m b.c x b P.rXeXtX~.!.^.eX!.~.!.~.~.~.aXPXPXPXPXPXPXPXPXPXPX",
"PXPXPXPXPXPXPXPXPX7X4X4XW.E.J.n.c ZXHXHXGXHXHXHXxXK.dXrXn J JXJXHXHXHXJXDXMXwXY.K.U.qX!.!.!./.^././.).).).`.AXPXPXPXPXPXPXPXPXPX",
"PXPXPXPXPXPXPXPX7X4XW.Z.P.B.n.n.x ZXGXGXGXGXGXGXxXG K.3   L GXGXGXGXGXGXGXGXGXJXvXL.K.qXqXI.).8X9X8X9X8X9X8X9XAXPXPXPXPXPXPXPXPX",
"PXPXPXPXPXPXPX6XG.c P.Q.C.c.M.n.x MXGXGXGXGXGXGXxX$ . .   J GXGXGXGXGXGXGXGXGXGXGXJXT.n U.qXI.^._.8X`.`._.`.gXAX0XPXPXPXPXPXPXPX",
"PXPXPXPXPXPX<XA.$ x.x.N.C.n.M.n.x ZXGXGXGXGXGXGXkX  X O   J GXGXGXGXGXGXGXGXGXGXGXGXGXzXn U.qXI.I.).8X8XhXgX8X.X3XG.PXPXPXPXPXPX",
"PXPXPXPXPXPX6X|.  < x.< < n.B.b.x MXGXGXGXGXGXGXjX  + O   L GXGXGXGXGXGXGXGXGXGXGXGXGXGXjXn I.I.I.I.^.gX8X2X X;X:X3XPXPXPXPXPXPX",
"PXPXPXPXPX3X<X3X1 X < % . $ b P.x MXGXGXGXGXGXGXjX  + O   K GXGXGXGXGXGXGXGXGXGXGXGXGXGXHXK L.fXU.eXeXK.A.+X|.|.'.oX}.PXPXPXPXPX",
"PXPXPXPX.X6X:X3XF.X X X O + + < x ZXGXGXGXGXGXGXjX  + + o h mXbXbXbXDXFXGXGXGXGXGXGXGXGXGXFXm _.hX_.F.z F.}.D.].'.'.1XPXPXPXPXPX",
"PXPXPXPXC <X3X3X;Xo X + O O + .   MXGXGXGXGXGXGXjX  + + O             O L mXGXGXGXGXGXGXGXGXwXn H.S S {.5X}.}.XX'.'.}.}.PXPXPXPX",
"PXPXPXO o X C ;X6XN X # O O O +   cXGXGXGXGXGXGXjX  + + o +     . 5 .       kXGXGXGXGXGXGXGXSX1 8.Z A +X+X+X@X,X,X,X+X@XPXPXPXPX",
"PXPXPX% O X X X B C & O O O O +   bXGXGXGXGXGXGXjX  + + + + + X : y 8 # X     MXGXGXGXGXGXGXGXF N C }.oX}.+X,X1X1X+X}.'.A PXPXPX",
"PXPXPX% O o X X X C < X O O o     vXGXGXGXGXGXGXjX    + + + X # 8 5 9 w : o   2 GXGXGXGXGXGXGXL 1 ].+X+X+XoX}.D.S A A D.oXPXPXPX",
"PXPXO X X X 1 D +XD X   X + O     bXGXGXGXGXGXGXjX    + + + X 7 9 5 4 5 q :     SXGXGXGXGXGXGXK 1  X'.D.S A A A S S.S.D.}.N PXPX",
"PXPXX % B S }.XXD.O X . - X X - f VXGXGXGXGXGXGXjX  + + +   : 8 4 5 5 4 6 8 4 . BXGXGXGXGXGXGXxX1 S N S F.Z Z S S.S.D.D.'.S.PXPX",
"PXPXA ].XX].A '.B X o - ~ : s w.7.BXGXGXGXGXGXGXjX    + + # 8 6 4 6 4 6 4 4 5 4 mXGXGXGXGXGXGXjX& Z Z S >X|.S.Z D S.S.S.F.'.PXPX",
"PXB +X].S.S ].S X X X 6 / 0.y.q.f nXGXGXGXGXGXGXjX  +     6 5 4 4 4 4 4 4 4 4 q FXGXGXGXGXGXGX=Xd D C B '.<X>X X].D D A D.}.PXPX",
"PXZ '.S.S.S XX1   X , 7.w.q.5.5.f BXGXGXGXGXGXGXjX    o - 7 ; 4 4 ; 4 4 4 4 4 j GXGXGXGXGXGXGXJ V {.].Z A.+X+X<X<X:XXXD D ].N PX",
"PXF.'.S.A ].Z X X g y.u.5.5.5.5.f BXGXGXGXGXGXGXjX    # 7 4 4 4 4 4 4 6 4 ; ; DXGXGXGXGXGXGXGXh d 3.2.4.Z A.:X X>X1X3X1X}.].N PX",
"PXG.G.S D.F.< s 0.y.q.5.5.5.2.5.f BXGXGXGXGXGXGXjX    ; 5 ; ; ; ; ; : @ . , VXGXGXGXGXGXGXGXSX* w r t P R f :XG.|. X X;X<X3XF.PX",
"PXD.D.S.C A [.$Xu.6.0.6.4.4.2.5.f BXGXGXGXGXGXGXjX* , @ * = = = * = , h kXFXGXGXGXGXGXGXGXGXK * r r t I U R e.:XG.G.|.|.|.:X;XPX",
"PX].C C ].$X$X[.w.0.7.5.5.4.2.4.f BXGXGXGXGXGXGXlX. BXFXDXSXSXSXSXSXJXGXGXGXGXGXGXGXGXGXGXJX, r t y I ~ P I ..5XoX.XG.:X X;X.XPX",
"PXA.].#X%X$X[.[.[.[.e.5.4.4.2.2.g BXGXGXGXGXGXGXzX. h GXGXGXGXGXGXGXGXGXGXGXGXGXGXGXGXGXHXJ ; Q E Y t I / 4.oXoX&X&X>XG.|.;X XPX",
"PX{.*X$X#X#X[.#X[.e.[.9.4.2.2.2.g nXGXGXGXGXGXGXjX* * K GXGXGXGXGXGXGXGXGXGXGXGXGXGXGXGXvX. P P T _ / 8.oX>X+XOXOX@X&X@X X:X.XPX",
"PX*X$X#X#X#X[.t.q.0.5.5.4.2.2.2.f BXGXGXGXGXGXGXjX@ 8 # DXGXGXGXGXGXGXGXGXGXGXGXGXGXGXvX. r E Y 3.8.oX+X}.oXOXOXOX@X@X5X&X1X.XPX",
"PX$X$Xt.w.0.6.6.6.6.4.4.2.4.4.9.d nXGXGXGXGXGXGXjX@ e = h GXGXGXGXGXGXGXGXGXGXGXGXHXK   7 ~ Y ( 9.oX+X@X@X+X@XOXOX@X@X@X&X5X+XPX",
"PXu.u.0.0.0.q.t.0.0.0.0.e.4.3.i * nXGXGXGXGXGXGXjX@ 8 q . xXGXGXGXGXGXGXGXGXGXJXxX2 , 9 9 7 e i T ` ..7.q.OX@X1X,X5X@X&X&X5XOXPX",
"PXq.y.q.q.0.t.q.t.u.e.2.f e 5 8 ; nXGXGXGXGXGXGXjX@ 8 i @   FXGXGXGXGXGXGXGXs.& - d 9.V 9 q 9 9 q t R ' ' o.[ 6.e.OX5X5X5X7X{.PX",
"PX4.y.q.q.y.y.u.6. .i 8 8 q u 8 * nXGXGXGXGXGXGXjX@ y 6     L HXGXGXGXGXGXGXmX* 3.3.3.3.7 y w q q e e r W ' o.O.' R ..6.#X7X8.PX",
"PXs %Xy.u.t.3./ w w w u y e y = ; nXGXGXGXGXGXGXjX* e #       mXGXGXGXGXGXGXGXkX6 2.3.4., - y I u y y u w y ( [ O.O.] R _ +.PXPX",
"PXPX$X2...I u t t t t w e Y - = 8 nXGXGXGXGXGXGXjX; : $ o : 7 > HXGXGXGXGXGXGXGXh g 2.6.V o + 4 t E I t I Y t ~ E [ O.o.{ ' PXPX",
"PXPXo 6 ^ I U I I t t u P 6   r 7 nXGXGXGXGXGXGXNX.     # q i - J GXGXGXGXGXGXGXDX0 r.3.0.>   o # 0 E ( ! ~ ! T Y ~ W [ +.{ PXPX",
"PXPX- { T U I I ~ u u U y X - Q 5 nXGXGXGXGXGXGXlX# + + 5 7 i #.@ ZXGXGXGXGXGXGXGXl.d 9.u.s X O o X # 9 T ] ! ! T T T I o.i PXPX",
"PXPXPX' U ! ~ U Y y I ! # o i P 5 nXGXGXGXGXGXGXjX; 8 = i } i #.a h GXGXGXGXGXGXGXHXh  .q.2.X O O O o X # e W ` T T R _ ' PXPXPX",
"PXPXPX] ^ Y Y I / y ` : o - E t 7 nXGXGXGXGXGXGXjX* i } %.%.0 a *.6 kXGXGXGXGXGXGXGXLX9 0.u., X O + O O o o - i ] ' R _ T PXPXPX",
"PXPXPX9 _ P E Y r _ 0 o X e ( r 8 nXGXGXGXGXGXGXjX7 ;.%.%.) 7 w -.k p SXHXGXGXGXGXGXGXJ f %XV X o O + O O O o o - y ' O.PXPXPXPX",
"PXPXPXPX` P P Y _ i X o O ( Y P q nXGXGXGXGXGXGXNXt ;.$.%.i e q #.*.a l GXGXGXGXGXGXGXJXs 6.q.+ + O O O O O O O o o , ~ PXPXPXPX",
"PXPXPXPXe _ t R W + o X 0 { I Y q nXGXGXGXGXGXGXlXt ;.>.| q u y u -.&.p bXGXGXGXGXGXGXGXmXd %Xs X O O O O O O O O O o PXPXPXPXPX",
"PXPXPXPXPX_ _ _ % o o X / W P P q BXGXGXGXGXGXGXlXu :.>.i y u y i #.*.#.p FXGXGXGXGXGXGXHXl 7.7.X O O O O O O O O & % PXPXPXPXPX",
"PXPXPXPXPXPXO., o O X : { U E P r VXGXGXGXGXGXGXlX~ ,.| e I t Y i a d.*.k p.GXGXGXGXGXGXGXFXd t.> X O O O O O O O % PXPXPXPXPXPX",
"PXPXPXPXPXPX6 X O X o / ` E Q P U VXGXGXGXGXGXGXlX! 1.^ r ~ ~ r / 0 &.*.*.a mXHXGXGXGXGXGXGXcX .V X O O O O O O O % PXPXPXPXPXPX",
"PXPXPXPXPXPXPX% O o - { E E Q P _ CXGXGXGXGXGXGXlX} >.r P I I Y W 0 k g.*.-.k JXGXGXGXGXGXGXGXp. .O + O O O O O % PXPXPXPXPXPXPX",
"PXPXPXPXPXPXPXPX% X i [ W Q ( Q ] KXGXHXGXGXGXGXcX^ ] r U P ! ~ ( e > f.*.<.#.l.GXGXGXGXGXGXHXJXr.: X O O O O % PXPXPXPXPXPXPXPX",
"PXPXPXPXPXPXPXPXPX# { { W W Q W :.a.vXvXbXcXcXbXp.] / P T T ^ ! ( Y $ &.g.*.<.#.lXbXbXcXNXbXbXmX=Xd X O O O % PXPXPXPXPXPXPXPXPX",
"PXPXPXPXPXPXPXPXPX0 +.W W W ( { ,.} w a w u u w | | Y T T T ! ! E Q   h k.*.<.<.#.p X.X.X.d d d 2.6.O X O % PXPXPXPXPXPXPXPXPXPX",
"PXPXPXPXPXPXPXPXPXPXY o.` ( / @.:.;.:.:.>.>.>.,.%.6 ` T T T ^ E E ` @ o h.d.=.d.g.g.h.-Xz.u.t.u.t.i.s X % PXPXPXPXPXPXPXPXPXPXPX",
"PXPXPXPXPXPXPXPXPXPXPXPX+.` ( >.%.$.$.$.;.$.$.,.p   ` R Q T ! W W ` :   k j.=.d.d.g.d.a.z.i.9.0.6.y.3.+ PXPXPXPXPXPXPXPXPXPXPXPX",
"PXPXPXPXPXPXPXPXPXPXPXPXPX+.[ %.$.$.$.;.$.$.>.;.$ o ! ' ^ ^ ^ E E ' 0 $ > h.<.f.f.g.f.f.z.i.5.0.6.i.i.PXPXPXPXPXPXPXPXPXPXPXPXPX",
"PXPXPXPXPXPXPXPXPXPXPXPXPXPXa ,.;.$.$.$.;.| ,.i $ O 0 ' ^ W T Q W { 0 o $ -.j.=.<.f.<.d.k.a.2.u.i.4.PXPXPXPXPXPXPXPXPXPXPXPXPXPX",
"PXPXPXPXPXPXPXPXPXPXPXPXPXPXPXPX1.>.;.$.$.;.>.& o o - ] W W W W W ] u o $ p j.=.g.<.f.f.d.z.u.u.PXPXPXPXPXPXPXPXPXPXPXPXPXPXPXPX",
"PXPXPXPXPXPXPXPXPXPXPXPXPXPXPXPXPX| $.>.$.:.a $ O o o ! { W W W W ` Y o $ $ g.h.<.<.<.g.k.k.PXPXPXPXPXPXPXPXPXPXPXPXPXPXPXPXPXPX",
"PXPXPXPXPXPXPXPXPXPXPXPXPXPXPXPXPXPXPX| >.:.% o & & X e o.Q ( W Q ` P o O $ k j.g.j.j.h.PXPXPXPXPXPXPXPXPXPXPXPXPXPXPXPXPXPXPXPX",
"PXPXPXPXPXPXPXPXPXPXPXPXPXPXPXPXPXPXPXPXPXPX% % O & X > ' _ ` ( _ ` ] & o $ > k.j.*.PXPXPXPXPXPXPXPXPXPXPXPXPXPXPXPXPXPXPXPXPXPX",
"PXPXPXPXPXPXPXPXPXPXPXPXPXPXPXPXPXPXPXPXPXPXPXPXPXPXX X ! ] _ { ` _ ] > $ % PXPXPXPXPXPXPXPXPXPXPXPXPXPXPXPXPXPXPXPXPXPXPXPXPXPX",
"PXPXPXPXPXPXPXPXPXPXPXPXPXPXPXPXPXPXPXPXPXPXPXPXPXPXPXPXPXPXPXPXPXPXPXPXPXPXPXPXPXPXPXPXPXPXPXPXPXPXPXPXPXPXPXPXPXPXPXPXPXPXPXPX"
};
